<svg width="16" height="16" viewBox="0 0 16 16" fill="none" xmlns="http://www.w3.org/2000/svg">
<g clip-path="url(#clip0_17_1629)">
<path d="M9.13612 12.3418C9.21705 12.2615 9.28535 12.1725 9.34475 12.0801L15.5459 5.87865C16.1506 5.2734 16.1509 4.29248 15.5456 3.68694C14.9407 3.08169 13.9595 3.08169 13.3539 3.68694L8.01343 9.02802L2.6448 3.65996C2.04012 3.05443 1.05863 3.05443 0.45309 3.65996C0.150894 3.96273 -0.000346234 4.35906 -0.000346252 4.75539C-0.000346269 5.15171 0.150895 5.5489 0.453665 5.85081L6.6821 12.0801C6.74151 12.1725 6.80953 12.2612 6.89074 12.3418C7.20069 12.6518 7.60763 12.8004 8.01343 12.7936C8.41951 12.8007 8.82703 12.6518 9.13612 12.3418Z" fill="white"/>
</g>
<defs>
<clipPath id="clip0_17_1629">
<rect width="16" height="16" fill="white" transform="translate(16) rotate(90)"/>
</clipPath>
</defs>
</svg>
