<svg width="40" height="40" viewBox="0 0 40 40" fill="none" xmlns="http://www.w3.org/2000/svg">
<g clip-path="url(#clip0_17_1709)">
<path d="M36.5339 38.3292L34.0999 11.2227C34.0334 10.4824 33.413 9.91544 32.6699 9.91544H27.6504V7.6516C27.6504 3.43251 24.2181 0 19.9992 0C15.7805 0 12.3486 3.43251 12.3486 7.6516V9.91544H7.32568C6.58256 9.91544 5.96214 10.4824 5.89571 11.2227L3.45212 38.4358C3.41613 38.8375 3.55052 39.2354 3.82254 39.5329C4.09456 39.8304 4.47914 39.9998 4.88209 39.9998H35.1137H35.1175C35.9106 39.9998 36.5532 39.357 36.5532 38.5641C36.553 38.4843 36.5465 38.4056 36.5339 38.3292ZM15.22 7.6516C15.22 5.01582 17.364 2.87143 19.9994 2.87143C22.635 2.87143 24.7792 5.01582 24.7792 7.6516V9.91544H15.22V7.6516ZM6.45258 37.1286L8.63831 12.7869H12.3486V15.3543C12.3486 16.1472 12.9912 16.79 13.7843 16.79C14.5774 16.79 15.22 16.1472 15.22 15.3543V12.7869H24.7792V15.3543C24.7792 16.1472 25.4218 16.79 26.2149 16.79C27.008 16.79 27.6506 16.1472 27.6506 15.3543V12.7869H31.3575L33.5432 37.1286H6.45258Z" fill="white"/>
</g>
<defs>
<clipPath id="clip0_17_1709">
<rect width="40" height="40" fill="white"/>
</clipPath>
</defs>
</svg>
