<svg width="14" height="14" viewBox="0 0 14 14" fill="none" xmlns="http://www.w3.org/2000/svg">
<path d="M12.7867 13.4152L11.9348 3.92795C11.9115 3.66886 11.6944 3.4704 11.4343 3.4704H9.67748V2.67806C9.67748 1.20138 8.47616 0 6.99955 0C5.523 0 4.32183 1.20138 4.32183 2.67806V3.4704H2.56381C2.30372 3.4704 2.08657 3.66886 2.06332 3.92795L1.20806 13.4525C1.19547 13.5931 1.2425 13.7324 1.33771 13.8365C1.43292 13.9406 1.56752 13.9999 1.70855 13.9999H12.2896H12.2909C12.5685 13.9999 12.7934 13.7749 12.7934 13.4974C12.7934 13.4695 12.7911 13.442 12.7867 13.4152ZM5.32683 2.67806C5.32683 1.75554 6.07723 1.005 6.99962 1.005C7.92207 1.005 8.67254 1.75554 8.67254 2.67806V3.4704H5.32683V2.67806ZM2.25822 12.995L3.02323 4.4754H4.32183V5.37401C4.32183 5.65152 4.54674 5.87651 4.82433 5.87651C5.10191 5.87651 5.32683 5.65152 5.32683 5.37401V4.4754H8.67254V5.37401C8.67254 5.65152 8.89746 5.87651 9.17504 5.87651C9.45262 5.87651 9.67754 5.65152 9.67754 5.37401V4.4754H10.9749L11.7399 12.995H2.25822Z" fill="black"/>
</svg>
